<svg width="24" height="22" viewBox="0 0 24 22" fill="none" xmlns="http://www.w3.org/2000/svg">
<g filter="url(#filter0_d_1_140)">
<path d="M15.8335 6.23869C15.2551 6.15457 14.7124 5.91789 14.2657 5.55501C13.8191 5.19213 13.4861 4.7173 13.3039 4.18341C13.1217 3.64951 13.0973 3.07751 13.2336 2.53111C13.3699 1.98471 13.6614 1.48536 14.0757 1.08869C15.3106 -0.0973588 17.6867 -0.455671 18.9216 0.73038C19.0031 0.808614 19.0784 0.892549 19.1469 0.981492L15.8335 6.23869Z" fill="url(#paint0_linear_1_140)"/>
<path d="M18.5486 5.38398C18.198 5.7215 17.7693 5.9748 17.2976 6.1233C16.8258 6.27181 16.3242 6.31132 15.8336 6.23865C15.638 5.68424 15.571 5.09548 15.6372 4.51358C15.7033 3.93168 15.9011 3.3707 16.2167 2.86991C16.5323 2.36912 16.958 1.94063 17.4641 1.61442C17.9702 1.28822 18.5443 1.07218 19.1465 0.981445C20.1057 2.21547 19.7015 4.27723 18.5486 5.38398Z" fill="url(#paint1_linear_1_140)"/>
<path d="M7.84854 6.23869C8.42695 6.15457 8.96971 5.91789 9.41634 5.55501C9.86297 5.19213 10.1959 4.7173 10.3782 4.18341C10.5604 3.64951 10.5848 3.07751 10.4485 2.53111C10.3122 1.98471 10.0207 1.48536 9.6064 1.08869C8.37146 -0.0973588 5.99537 -0.455671 4.76094 0.73038C4.67918 0.808483 4.6037 0.892428 4.53516 0.981492L7.84854 6.23869Z" fill="url(#paint2_linear_1_140)"/>
<path d="M5.13403 5.38398C5.48459 5.72149 5.91312 5.97479 6.3848 6.1233C6.85647 6.2718 7.35797 6.31132 7.84855 6.23865C7.9958 5.82267 8.07071 5.38623 8.07025 4.94686C8.07001 3.98971 7.71365 3.06415 7.06544 2.33713C6.41723 1.6101 5.51985 1.12947 4.53517 0.981934C3.57902 2.21547 3.98064 4.27723 5.13403 5.38398Z" fill="url(#paint3_linear_1_140)"/>
<path d="M6.37432 2.65754C6.27766 2.56513 6.1615 2.49369 6.03367 2.44802C5.90584 2.40236 5.76931 2.38353 5.63326 2.39281C5.49722 2.40208 5.36482 2.43925 5.24499 2.5018C5.12516 2.56436 5.02068 2.65084 4.93858 2.75544C4.66124 3.10545 4.41294 3.47583 4.19598 3.86317C4.3786 4.43426 4.69985 4.95552 5.13327 5.38404C5.38193 5.62333 5.67047 5.82103 5.98697 5.96899L6.62253 3.5264C6.66269 3.37331 6.66093 3.21285 6.61744 3.06061C6.57395 2.90837 6.4902 2.76952 6.37432 2.65754Z" fill="#FD748D"/>
<path d="M4.79561 8.651C4.7563 8.36473 4.73672 8.07628 4.737 7.78753C4.75287 5.988 5.50833 4.26737 6.83888 3.00027C8.16942 1.73317 9.96731 1.02222 11.8411 1.02222C13.7148 1.02222 15.5127 1.73317 16.8433 3.00027C18.1738 4.26737 18.9293 5.988 18.9451 7.78753C18.9457 8.07645 18.9261 8.36508 18.8865 8.65149L4.79561 8.651Z" fill="url(#paint4_linear_1_140)"/>
<path d="M18.887 8.65136C18.4365 11.8708 15.4534 13.1229 11.8413 13.1229C8.22926 13.1229 5.24563 11.8708 4.79559 8.65087C6.63041 6.96602 8.46523 7.55978 10.402 4.0447C10.5402 3.79364 10.7478 3.58398 11.0019 3.4387C11.1918 3.32966 11.4027 3.25875 11.622 3.23026C11.8413 3.20176 12.0643 3.21628 12.2775 3.27292C12.4908 3.32957 12.6898 3.42717 12.8627 3.55983C13.0356 3.69248 13.1786 3.85743 13.2832 4.0447C15.2164 7.55978 17.0547 6.96602 18.8896 8.65136H18.887Z" fill="url(#paint5_linear_1_140)"/>
<path d="M7.28227 7.89811C7.71013 7.89811 8.05697 7.6303 8.05697 7.29995C8.05697 6.96959 7.71013 6.70178 7.28227 6.70178C6.85441 6.70178 6.50757 6.96959 6.50757 7.29995C6.50757 7.6303 6.85441 7.89811 7.28227 7.89811Z" fill="#FFAECF"/>
<path d="M16.3998 7.89811C16.8277 7.89811 17.1745 7.6303 17.1745 7.29995C17.1745 6.96959 16.8277 6.70178 16.3998 6.70178C15.972 6.70178 15.6251 6.96959 15.6251 7.29995C15.6251 7.6303 15.972 7.89811 16.3998 7.89811Z" fill="#FFAECF"/>
<path d="M8.61049 7.29993C9.45889 7.29993 10.1466 6.6394 10.1466 5.82459C10.1466 5.00978 9.45889 4.34924 8.61049 4.34924C7.7621 4.34924 7.07434 5.00978 7.07434 5.82459C7.07434 6.6394 7.7621 7.29993 8.61049 7.29993Z" fill="white"/>
<path d="M15.0716 7.29993C15.92 7.29993 16.6078 6.6394 16.6078 5.82459C16.6078 5.00978 15.92 4.34924 15.0716 4.34924C14.2232 4.34924 13.5355 5.00978 13.5355 5.82459C13.5355 6.6394 14.2232 7.29993 15.0716 7.29993Z" fill="white"/>
<path d="M8.61052 6.7042C9.11635 6.7042 9.5264 6.31038 9.5264 5.82457C9.5264 5.33877 9.11635 4.94495 8.61052 4.94495C8.1047 4.94495 7.69464 5.33877 7.69464 5.82457C7.69464 6.31038 8.1047 6.7042 8.61052 6.7042Z" fill="#383842"/>
<path d="M15.0716 6.7042C15.5774 6.7042 15.9875 6.31038 15.9875 5.82457C15.9875 5.33877 15.5774 4.94495 15.0716 4.94495C14.5658 4.94495 14.1557 5.33877 14.1557 5.82457C14.1557 6.31038 14.5658 6.7042 15.0716 6.7042Z" fill="#383842"/>
<path d="M12.351 7.77034C12.169 7.76894 11.9916 7.71561 11.8413 7.61713C11.6911 7.71588 11.5136 7.76924 11.3316 7.77034C11.1989 7.76803 11.0682 7.7393 10.9476 7.68597C10.8271 7.63263 10.7194 7.55585 10.6313 7.46049C10.5867 7.4117 10.5635 7.34811 10.5669 7.28322C10.5703 7.21833 10.5998 7.15726 10.6493 7.11298C10.6988 7.06869 10.7644 7.04468 10.832 7.04605C10.8996 7.04741 10.964 7.07404 11.0115 7.12028C11.0493 7.16722 11.0978 7.20523 11.1532 7.23137C11.2086 7.25752 11.2696 7.27112 11.3314 7.27112C11.3931 7.27112 11.4541 7.25752 11.5095 7.23137C11.5649 7.20523 11.6134 7.16722 11.6512 7.12028C11.6755 7.09523 11.7049 7.07526 11.7376 7.0616C11.7703 7.04794 11.8056 7.04089 11.8413 7.04089C11.8769 7.04089 11.9122 7.04794 11.9449 7.0616C11.9776 7.07526 12.0071 7.09523 12.0314 7.12028C12.0692 7.16722 12.1176 7.20523 12.1731 7.23137C12.2285 7.25752 12.2894 7.27112 12.3512 7.27112C12.413 7.27112 12.4739 7.25752 12.5294 7.23137C12.5848 7.20523 12.6333 7.16722 12.671 7.12028C12.7185 7.07404 12.783 7.04741 12.8506 7.04605C12.9182 7.04468 12.9837 7.06869 13.0332 7.11298C13.0827 7.15726 13.1123 7.21833 13.1157 7.28322C13.119 7.34811 13.0959 7.4117 13.0512 7.46049C12.9633 7.55584 12.8557 7.63261 12.7352 7.68595C12.6148 7.73929 12.4841 7.76802 12.3515 7.77034H12.351Z" fill="#383842"/>
</g>
<defs>
<filter id="filter0_d_1_140" x="0" y="0" width="23.6832" height="21.1229" filterUnits="userSpaceOnUse" color-interpolation-filters="sRGB">
<feFlood flood-opacity="0" result="BackgroundImageFix"/>
<feColorMatrix in="SourceAlpha" type="matrix" values="0 0 0 0 0 0 0 0 0 0 0 0 0 0 0 0 0 0 127 0" result="hardAlpha"/>
<feOffset dy="4"/>
<feGaussianBlur stdDeviation="2"/>
<feComposite in2="hardAlpha" operator="out"/>
<feColorMatrix type="matrix" values="0 0 0 0 0 0 0 0 0 0 0 0 0 0 0 0 0 0 0.25 0"/>
<feBlend mode="normal" in2="BackgroundImageFix" result="effect1_dropShadow_1_140"/>
<feBlend mode="normal" in="SourceGraphic" in2="effect1_dropShadow_1_140" result="shape"/>
</filter>
<linearGradient id="paint0_linear_1_140" x1="986.868" y1="1488.3" x2="1679.18" y2="1488.3" gradientUnits="userSpaceOnUse">
<stop stop-color="#4F4C5F"/>
<stop offset="1" stop-color="#77718A"/>
</linearGradient>
<linearGradient id="paint1_linear_1_140" x1="15.6131" y1="3.62681" x2="19.6831" y2="3.62681" gradientUnits="userSpaceOnUse">
<stop stop-color="#FD869C"/>
<stop offset="1" stop-color="#FDB0BF"/>
</linearGradient>
<linearGradient id="paint2_linear_1_140" x1="-16.0457" y1="1488.3" x2="676.264" y2="1488.3" gradientUnits="userSpaceOnUse">
<stop stop-color="#77718A"/>
<stop offset="1" stop-color="#4F4C5F"/>
</linearGradient>
<linearGradient id="paint3_linear_1_140" x1="3.99977" y1="3.62681" x2="8.07032" y2="3.62681" gradientUnits="userSpaceOnUse">
<stop stop-color="#FDB0BF"/>
<stop offset="1" stop-color="#FD869C"/>
</linearGradient>
<linearGradient id="paint4_linear_1_140" x1="11.8414" y1="8.65125" x2="11.8414" y2="0.96422" gradientUnits="userSpaceOnUse">
<stop stop-color="#FDB58A"/>
<stop offset="1" stop-color="#3C2313"/>
</linearGradient>
<linearGradient id="paint5_linear_1_140" x1="11.8414" y1="13.1232" x2="11.8414" y2="3.21538" gradientUnits="userSpaceOnUse">
<stop stop-color="#FFF5E3"/>
<stop offset="1" stop-color="#F0A83E"/>
</linearGradient>
</defs>
</svg>
